<svg width="107" height="41" viewBox="0 0 107 41" fill="none" xmlns="http://www.w3.org/2000/svg">
<path d="M6.52 12.4C6.52 14.1867 6.2 16.2133 5.56 18.48C5.61333 19.3333 5.64 20.16 5.64 20.96C5.69333 22.6667 5.90667 23.84 6.28 24.48C6.54667 24.8267 6.89333 25 7.32 25C8.14667 25 9.17333 24.4133 10.4 23.24C9.46667 21.0267 9 19.0267 9 17.24C9 13.5867 10.72 11.76 14.16 11.76C15.3333 11.76 16.3067 12.1067 17.08 12.8C17.88 13.4667 18.28 14.3067 18.28 15.32C18.28 17.4533 17.0933 20.0133 14.72 23C15.7067 24.1733 16.5067 24.8533 17.12 25.04C18 25.04 19.32 23.4133 21.08 20.16C20.76 18.96 20.6 17.84 20.6 16.8C20.6 14.9067 20.8933 13.52 21.48 12.64C22.2 11.52 23.3867 10.96 25.04 10.96C26.72 10.96 27.6667 11.64 27.88 13C27.9333 13.4 27.96 13.8267 27.96 14.28C27.96 15.9867 27.0133 18.3467 25.12 21.36C25.7867 22.32 26.4133 22.8933 27 23.08C28.2267 23.08 29.2667 22.6667 30.12 21.84C30.44 21.5467 30.7067 21.28 30.92 21.04C31.16 20.7733 31.4 20.64 31.64 20.64C32.0133 20.64 32.2 21.08 32.2 21.96C32.2 23.5867 31.72 24.7867 30.76 25.56C29.8 26.3333 28.5467 26.72 27 26.72C25.4533 26.72 24.1067 25.9733 22.96 24.48C21.5733 26.2933 20.4267 27.56 19.52 28.28C17.8667 29.64 16.5733 30.32 15.64 30.32C15.1867 30.32 14.6 29.9467 13.88 29.2C13.1867 28.4267 12.4933 27.4267 11.8 26.2C10.52 27.4 9.25333 28.3867 8 29.16C6.74667 29.9333 5.69333 30.32 4.84 30.32C3.29333 30.32 1.98667 26.96 0.92 20.24C0.546667 17.9467 0.36 16.3733 0.36 15.52C0.413333 13.76 0.653333 12.5333 1.08 11.84C1.66667 10.9867 2.81333 10.56 4.52 10.56C5.16 10.56 5.65333 10.76 6 11.16C6.34667 11.5333 6.52 11.9467 6.52 12.4ZM13.36 19.6C14.24 18.24 14.68 17.16 14.68 16.36C14.68 15.5333 14.4 15.12 13.84 15.12C13.4667 15.12 13.2267 15.3333 13.12 15.76C13.04 16.16 13 16.6933 13 17.36C13 18.0267 13.12 18.7733 13.36 19.6ZM39.7153 25.64C41.7953 25.64 43.8086 24.8133 45.7553 23.16C46.4753 22.5467 47.062 21.9867 47.5153 21.48C47.9686 20.9467 48.3153 20.68 48.5553 20.68C48.9286 20.68 49.1153 21.0533 49.1153 21.8C49.1153 22.5467 48.9153 23.3867 48.5153 24.32C48.1153 25.2267 47.4486 26.12 46.5153 27C44.222 29.16 41.0753 30.24 37.0753 30.24C33.902 30.24 31.742 29.0933 30.5953 26.8C30.1953 26 29.9953 24.8533 29.9953 23.36C29.9953 21.8667 30.2886 20.32 30.8753 18.72C31.462 17.0933 32.2353 15.6933 33.1953 14.52C34.182 13.3467 35.3153 12.44 36.5953 11.8C37.8753 11.1333 39.2353 10.8 40.6753 10.8C42.142 10.8 43.262 11.16 44.0353 11.88C44.8353 12.6 45.2353 13.5333 45.2353 14.68C45.2353 15.8267 44.942 16.7733 44.3553 17.52C43.7953 18.24 43.062 18.8533 42.1553 19.36C41.2486 19.84 40.2353 20.28 39.1153 20.68C38.022 21.0533 36.942 21.48 35.8753 21.96V22.96C35.902 23.92 36.302 24.6 37.0753 25C37.8486 25.4 38.7286 25.6133 39.7153 25.64ZM39.0353 14.36C37.6486 14.36 36.6886 15.9733 36.1553 19.2C36.7153 18.8267 37.2353 18.4933 37.7153 18.2C38.222 17.9067 38.662 17.6267 39.0353 17.36C39.8353 16.7733 40.2486 16.1067 40.2753 15.36C40.2753 14.6933 39.862 14.36 39.0353 14.36ZM50.4741 11.2C48.5007 10.3467 47.5141 9.52 47.5141 8.72C47.5141 8.29333 47.6874 8.09333 48.0341 8.12C48.5141 8.12 49.0607 8.24 49.6741 8.48C50.2874 8.69333 50.9141 8.86667 51.5541 9C53.7407 4.86667 56.2207 2.16 58.9941 0.879998C59.9274 0.453332 60.8607 0.226665 61.7941 0.199997C63.6341 0.199997 65.0341 0.653331 65.9941 1.56C66.9807 2.44 67.4741 3.52 67.4741 4.8C67.4741 7.09333 66.2341 8.86667 63.7541 10.12C61.7274 11.1333 58.9674 11.76 55.4741 12C54.2207 15.0933 53.5941 18.4133 53.5941 21.96C53.5941 24.6 54.2074 26.1333 55.4341 26.56C56.2874 26.8533 56.9274 26.8667 57.3541 26.6C57.7807 26.3067 58.1141 25.9333 58.3541 25.48C58.5941 25 58.7141 24.3067 58.7141 23.4C58.7407 22.4933 58.4874 21.7333 57.9541 21.12C57.4474 20.48 56.9541 19.8933 56.4741 19.36C56.7141 18.48 57.0607 17.7467 57.5141 17.16C58.3674 16.0133 59.1007 15.44 59.7141 15.44C60.3274 15.44 60.8207 15.6533 61.1941 16.08C61.5941 16.5067 61.9141 17.04 62.1541 17.68C62.3941 18.32 62.5807 19.0133 62.7141 19.76C62.8741 20.5067 63.0474 21.2 63.2341 21.84C63.4207 22.48 63.6474 23.0133 63.9141 23.44C64.2074 23.8667 64.5807 24.08 65.0341 24.08C65.5141 24.08 65.9407 23.9067 66.3141 23.56C66.6874 23.1867 67.0207 22.7867 67.3141 22.36C67.6074 21.9333 67.8741 21.5467 68.1141 21.2C68.3541 20.8267 68.5941 20.64 68.8341 20.64C69.1007 20.64 69.3541 20.8533 69.5941 21.28C69.8607 21.7067 69.9941 22.1067 69.9941 22.48C69.9941 23.3333 69.5674 24.3467 68.7141 25.52C67.8874 26.6933 66.8207 27.28 65.5141 27.28C64.2074 27.2533 63.1941 26.9733 62.4741 26.44C62.0207 27.56 61.2474 28.4933 60.1541 29.24C59.0607 29.9867 57.5007 30.36 55.4741 30.36C53.4741 30.36 51.7541 29.84 50.3141 28.8C48.5807 27.5467 47.7141 25.6 47.7141 22.96C47.7141 19.2 48.6341 15.28 50.4741 11.2ZM63.0741 5.52C63.0474 4.58667 62.7007 4.12 62.0341 4.12C61.3941 4.12 60.5541 4.61333 59.5141 5.6C58.4741 6.58667 57.4741 7.96 56.5141 9.72C59.4207 9.21333 61.4074 8.32 62.4741 7.04C62.8474 6.56 63.0474 6.05333 63.0741 5.52ZM76.6981 30.12C72.8848 30.1467 70.2848 28.72 68.8981 25.84C68.4181 24.8267 68.1781 23.56 68.1781 22.04C68.1781 20.4933 68.3115 18.8533 68.5781 17.12C69.1115 13.6533 70.1381 10.4533 71.6581 7.52C72.4315 6.02667 73.2981 4.74667 74.2581 3.68C76.3648 1.33333 78.7115 0.173331 81.2981 0.199997C82.4448 0.199997 83.3381 0.519998 83.9781 1.16C84.6448 1.77333 84.9781 2.66667 84.9781 3.84C84.9781 5.01333 84.6315 6.2 83.9381 7.4C83.2448 8.57333 82.3515 9.8 81.2581 11.08C80.1915 12.3333 79.0048 13.6533 77.6981 15.04C76.3915 16.4267 75.1115 17.9333 73.8581 19.56V21.16C73.8581 22.6533 74.1781 23.7467 74.8181 24.44C75.4581 25.1333 76.2048 25.48 77.0581 25.48C79.3515 25.48 81.3781 24.3467 83.1381 22.08C83.8581 21.1467 84.4048 20.68 84.7781 20.68C85.1515 20.68 85.3381 21.1333 85.3381 22.04C85.3381 22.9467 85.0848 23.88 84.5781 24.84C84.0981 25.7733 83.4581 26.64 82.6581 27.44C81.8581 28.2133 80.9381 28.8533 79.8981 29.36C78.8581 29.8667 77.7915 30.12 76.6981 30.12ZM78.8581 8.64C79.4181 7.94667 79.8581 7.32 80.1781 6.76C80.4981 6.2 80.6581 5.62666 80.6581 5.04C80.6581 4.42667 80.4448 4.12 80.0181 4.12C79.0848 4.12 78.0448 5.08 76.8981 7C75.7781 8.92 74.9381 11.44 74.3781 14.56C75.2848 13.1733 76.1115 12.0133 76.8581 11.08C77.6315 10.1467 78.2981 9.33333 78.8581 8.64ZM93.7334 27.08C92.4001 28.92 90.6134 29.84 88.3734 29.84C86.5601 29.84 85.1068 29.4667 84.0134 28.72C82.9468 27.9467 82.4134 26.7333 82.4134 25.08C82.4134 24.3867 82.5068 23.7467 82.6934 23.16C82.9068 22.5733 83.2401 21.8533 83.6934 21L84.8534 11.52C85.6801 10.88 86.8001 10.56 88.2134 10.56C89.4134 10.56 90.0934 11.36 90.2534 12.96C90.3068 13.44 90.3334 14.0133 90.3334 14.68C90.3334 15.32 90.2268 16 90.0134 16.72C88.9468 20.4 88.4268 22.8667 88.4534 24.12C88.4534 25.08 89.0134 25.56 90.1334 25.56C91.2534 25.56 92.0801 25.2 92.6134 24.48C93.1468 23.76 93.6001 22.8667 93.9734 21.8C94.6668 18.84 95.3068 16.4 95.8934 14.48C96.5068 12.56 96.8934 11.4133 97.0534 11.04C97.3201 10.4 97.8268 10.0667 98.5734 10.04C99.3201 10.0667 100.027 10.6 100.693 11.64C101.36 12.6533 101.693 13.44 101.693 14C101.64 15.8667 100.48 20.5733 98.2134 28.12C99.9468 26.76 101.667 25.0933 103.373 23.12C103.96 22.4267 104.453 21.8533 104.853 21.4C105.253 20.92 105.573 20.68 105.813 20.68C106.187 20.68 106.373 21.1067 106.373 21.96C106.373 23.64 105.427 25.6 103.533 27.84C101.667 30.08 99.3734 31.8267 96.6534 33.08C96.3334 34.1467 95.9868 35.16 95.6134 36.12C95.2401 37.08 94.7601 37.92 94.1734 38.64C92.8934 40.1867 90.9468 40.96 88.3334 40.96C86.5734 40.96 85.0668 40.4533 83.8134 39.44C82.5868 38.4267 81.9734 37.16 81.9734 35.64C81.9734 34.7867 82.2534 34.1067 82.8134 33.6C83.4001 33.0933 84.1868 32.6667 85.1734 32.32C86.1868 32 87.3601 31.7067 88.6934 31.44C90.0268 31.2 91.4534 30.8933 92.9734 30.52C93.3468 28.92 93.6001 27.7733 93.7334 27.08ZM88.2934 37.88C89.5468 37.88 90.6801 36.7867 91.6934 34.6C90.7334 34.7867 89.8801 34.92 89.1334 35C88.3868 35.1067 87.7468 35.2 87.2134 35.28C86.1468 35.44 85.6268 35.72 85.6534 36.12C85.6534 36.6267 85.9468 37.0533 86.5334 37.4C87.1468 37.7467 87.7334 37.9067 88.2934 37.88Z" fill="black"/>
</svg>
